<?xml version="1.0" encoding="iso-8859-1"?>
<!-- Generator: Adobe Illustrator 19.0.0, SVG Export Plug-In . SVG Version: 6.00 Build 0)  -->
<svg version="1.1" id="Capa_1" xmlns="http://www.w3.org/2000/svg" xmlns:xlink="http://www.w3.org/1999/xlink" x="0px" y="0px"
	 viewBox="0 0 477.867 477.867" style="enable-background:new 0 0 477.867 477.867;" xml:space="preserve">
<g>
	<g>
		<path d="M426.667,51.2h-51.2V17.067C375.467,7.641,367.826,0,358.4,0s-17.067,7.641-17.067,17.067V51.2h-204.8V17.067
			C136.533,7.641,128.892,0,119.467,0S102.4,7.641,102.4,17.067V51.2H51.2C22.923,51.2,0,74.123,0,102.4v324.267
			c0,28.277,22.923,51.2,51.2,51.2h375.467c28.277,0,51.2-22.923,51.2-51.2V102.4C477.867,74.123,454.944,51.2,426.667,51.2z
			 M443.733,426.667c0,9.426-7.641,17.067-17.067,17.067H51.2c-9.426,0-17.067-7.641-17.067-17.067V204.8h409.6V426.667z
			 M443.733,170.667h-409.6V102.4c0-9.426,7.641-17.067,17.067-17.067h51.2v34.133c0,9.426,7.641,17.067,17.067,17.067
			s17.067-7.641,17.067-17.067V85.333h204.8v34.133c0,9.426,7.641,17.067,17.067,17.067s17.067-7.641,17.067-17.067V85.333h51.2
			c9.426,0,17.067,7.641,17.067,17.067V170.667z"/>
	</g>
</g>
<g>
	<g>
		<path d="M352.98,243.934c-6.614-6.388-17.099-6.388-23.712,0L204.8,368.401l-56.201-56.201c-6.78-6.548-17.584-6.36-24.132,0.419
			c-6.388,6.614-6.388,17.099,0,23.713l68.267,68.267c6.665,6.662,17.468,6.662,24.132,0l136.533-136.533
			C359.947,261.286,359.759,250.482,352.98,243.934z"/>
	</g>
</g>
<g>
</g>
<g>
</g>
<g>
</g>
<g>
</g>
<g>
</g>
<g>
</g>
<g>
</g>
<g>
</g>
<g>
</g>
<g>
</g>
<g>
</g>
<g>
</g>
<g>
</g>
<g>
</g>
<g>
</g>
</svg>
