<svg height="512" viewBox="0 0 64 64" width="512" xmlns="http://www.w3.org/2000/svg"><g id="Config"><path d="m7 11h50v30h-50z" fill="#ffcd00"/><path d="m55 3h-46a2 2 0 0 0 -2 2v6h50v-6a2 2 0 0 0 -2-2z" fill="#ff3051"/><path d="m59 11h-2v30h-50v-30h-2a2.006 2.006 0 0 0 -2 2v32a2.006 2.006 0 0 0 2 2h54a2.006 2.006 0 0 0 2-2v-32a2.006 2.006 0 0 0 -2-2z" fill="#3d9ae2"/><path d="m25 47h14v8h-14z" fill="#a7a9ac"/><path d="m19 55a2 2 0 0 0 -2 2v4h30v-4a2 2 0 0 0 -2-2z" fill="#6d6e71"/><path d="m22 41h35v-28c0 15.477-15.654 28-35 28z" fill="#ebbf00"/><path d="m45.42 33a14.459 14.459 0 0 0 -1.1-2.66l3.94-3.95-5.65-5.65-3.95 3.94a14.459 14.459 0 0 0 -2.66-1.1v-5.58h-8v5.58a14.459 14.459 0 0 0 -2.66 1.1l-3.95-3.94-5.65 5.65 3.94 3.95a14.459 14.459 0 0 0 -1.1 2.66h-5.58v8h38v-8z" fill="#ff9811"/><g fill="#f1f2f2"><path d="m32 29a8 8 0 0 0 -8 8 7.851 7.851 0 0 0 1.08 4h13.84a7.851 7.851 0 0 0 1.08-4 8 8 0 0 0 -8-8z"/><path d="m12 6h-1a1 1 0 0 0 0 2h1a1 1 0 0 0 0-2z"/><path d="m17 6h-1a1 1 0 0 0 0 2h1a1 1 0 0 0 0-2z"/><path d="m22 6h-1a1 1 0 0 0 0 2h1a1 1 0 0 0 0-2z"/></g><path d="m25 47h14v2h-14z" fill="#939598"/></g></svg>