<svg enable-background="new 0 0 100 100" height="512" viewBox="0 0 100 100" width="512" xmlns="http://www.w3.org/2000/svg"><path d="m50.3171082 39.131218c3.7959557 0 7.2932892-2.6056862 9.4495926-5.3920021-.3171234-.0310783-1.0961075-.1999168-1.3975182-.2769012-2.0092201 2.3957367-4.6189651 2.8198853-7.9902649 2.8198853s-6.4459686-.3253899-8.4551888-2.7211266c-.3014069.0769882-.6091728.1377296-.9263.1688042 2.1563072 2.7863158 5.5237198 5.4013404 9.3196793 5.4013404z" fill="#e6e7e8"/><path d="m66.4758148 40.1208992c-1.9538956 1.8844604-4.232193 3.4213333-6.7421684 4.5257607-.1621971.0772133-.3320808.1466942-.5020142.2162704-2.7416534 1.1429863-5.753643 1.7685013-8.9123268 1.7685013-3.1587296 0-6.1706696-.625515-8.9200592-1.7685013-.1699295-.0695763-.3398132-.1390572-.5020142-.2162704-2.5099754-1.1044273-4.788269-2.6490288-6.7421646-4.5333977l.0463371-.602417c.2394104-3.2359848 2.9347305-5.7536926 6.1861305-5.7536926.2084885 0 .4092941-.0077324.6100998-.0308266 2.1547012 2.7879906 5.521965 4.5952415 9.3216705 4.5952415 3.7919731 0 7.1591911-1.807251 9.3139381-4.5952415.2008057.0230942.4092979.0308266.6100998.0308266 3.2514038 0 5.9544563 2.5177078 6.1861382 5.7536926z" fill="#d5693c"/><path d="m54.0454369 27.5599022v-1.9069843h-7.4566612v1.9069843c0 2.8934956-1.9846725 5.3169556-4.6650467 6.0011711 2.0092201 2.3957367 5.0220795 3.9213257 8.3933792 3.9213257s6.3841553-1.525589 8.3933754-3.9213257c-2.6801949-.6842155-4.6650467-3.1076755-4.6650467-6.0011711z" fill="#ffd25a"/><path d="m44.6643867 39.131218s-6.3867035-.0665283-3.7921066-6.8523979c0 0 2.2858009-3.060297-.6200943-9.8461666 0 0-1.6725426-5.1310596 1.7034073-9.2926159 2.6226463-3.232955 7.0811768-4.4596281 10.913765-2.8343477 1.7970772.762085 3.6111679 2.2059536 4.815731 4.8753958 0 0 3.8012924 8.4303989-2.5236435 15.9197617l-1.443882-2.1959-7.3044472.1194038s.9037895 3.5836506-1.2916374 5.3133831c-2.1954307 1.7297324-.8562622 3.7955627-.4570923 4.7934837z" fill="#304651"/><path d="m57.6850891 20.5364704c-1.3277435 7.8488235-5.6981316 9.862072-7.1838913 10.32584-.32481.101387-.6742363.1013889-.9990501.0000076-1.485817-.4637547-5.85672-2.4769821-7.1872711-10.3258476l1.5339508-5.9051466h12.3022842z" fill="#fdd96f"/><path d="m43.9991035 26.0251732s.1070518.1284599.2950783.3288898c.5531158.5895977 1.8069611 1.8019791 3.0978584 2.1991787 0 0-3.9916878-2.3284836-3.3929367-8.5821304 0 0 3.3929367 0 5.7214203-1.9293156 0 0-.798336 1.8627872-4.0582161 2.7276535 0 0 4.2578011.7983379 6.652813-2.9937668 0 0-.5720634 2.1289005-2.3151398 2.8607101 0 0 2.4295044-.2113304 4.8432121-3.2598782 0 0 3.0602951 2.5254517.9313927 6.9841461 0 0 .8125038-.8114376 1.3133545-1.6053391.0542145-.0859356.1047783-.1716671.1502647-.2561398.4656982-.8648663 0 3.1268215 0 3.1268215l1.1309776-5.1891937-2.1334763-6.1708851-7.5796318-.2158175h-5.3605194l-1.624935 4.5239137.6442566 4.2362347z" fill="#304651"/><path d="m72.6641846 77.0996475c.3944473 2.4530258 2.5199585 4.334938 5.0824814 4.334938 2.5625534 0 4.6880951-1.8819122 5.0825119-4.3349991-.904686-.6295624-.8639374-1.4953537-.8639374-1.4953537v-2.6813354h-8.437088l-.0209961 2.7589264s.0617752.7882309-.8429718 1.4178238z" fill="#d6b24e"/><path d="m84.3955765 62.3947258c-.0014496 0-.0028458.4599266-.0042343.4599266-.0897903-3.6569824-3.0437698-7.0800858-6.6446304-7.0800858-3.600853 0-6.5548859 3.4231033-6.6446228 7.0800858-.0013962 0-.0027847-.4599266-.0042343-.4599266-.7341614 0-1.3292618 1.6589317-1.3292618 3.1387367s.5951004 2.6792526 1.3292618 2.6792526v.0956573c0 1.8279343 1.592392 4.14077 3.2185593 6.026001 1.8131638 2.1020508 5.0473862 2.1020508 6.8605499 0 1.6262207-1.885231 3.2186127-4.1980667 3.2186127-6.026001v-.0956573c.734108 0 1.3292618-1.1994476 1.3292618-2.6792526s-.595154-3.1387367-1.3292619-3.1387367z" fill="#ffd25a"/><path d="m83.0343094 79.5797348-1.2018814 3.5392075-2.4634933 7.2179184c-.0199432.0066528-.0398407.013298-.0597839.0066528-.0464859.0066452-.0929718.0132904-.1460648.0066452l-.3121109-.7105484-.6839218-1.5670013-.0730743-6.6535187-.0265427-2.2444763.8831558-.9029846.4648285-.4715118 1.8194122.8964157h.0066452l.8100891.3984756.6241837.3054276z" fill="#e6e7e8"/><path d="m95 80.5624771c-2.7955475 4.7344818-7.4835434 8.2139511-13.0281143 9.3958511-.6441193.1394958-1.2948532.2524109-1.9588699.3187943l.849968-2.8751831.9694443-4.2829971.0066452-.0464401.8366776-3.6720657.2191391-.9362946 1.646759-1.8392715h.0066452c.2722319.0596541 8.2206038 1.8392714 10.4517058 3.9376067z" fill="#344e5c"/><path d="m81.9774246 75.3096619-4.2351379 2.2055053 3.3035431 2.0631867z" fill="#dad7dc"/><path d="m77.4167023 79.174614-.0265884 2.2444763-.0730286 6.6535187-.6839218 1.5670013-.3121109.7105484c-.0464859.0066452-.099617 0-.1460648-.0066452-.0199432.0066452-.0398407 0-.0597839-.0066528l-2.4900818-7.304245v-.0066452l-1.1753311-3.4462357.3519516-.1726532.6374741-.3120728.8100891-.3984756 1.8194122-.8964157.4648285.4715118z" fill="#e6e7e8"/><path d="m75.484375 90.2771225c-.6706696-.0663834-1.3280411-.1792984-1.9721222-.3187943-5.5446091-1.1885452-10.2326088-4.6680145-13.0281143-9.3958511 2.2443962-2.1049805 10.1794281-3.8779526 10.4517059-3.9376068h.0066452l1.646759 1.8392715.2124939.9362946v.0066452l.8233795 3.6188889v.0066452l.9960327 4.3693237z" fill="#344e5c"/><path d="m73.5071564 75.3096619 4.2351303 2.2055053-3.3035431 2.0631867z" fill="#dad7dc"/><path d="m79.3091507 90.3435135c-.0464859.0066452-.0929718.0132904-.1460648.0066452-.1527557.0199356-.3121109.0332336-.4781189.0332336-.3120728.0199356-.6241837.0265045-.9429016.0265045s-.6308289-.0065689-.942894-.0265045c-.1594009 0-.3187637-.013298-.4781189-.0332336-.0464859.0066452-.099617 0-.1460648-.0066452l.1593552-2.0717468.5445023-6.9191437.1062317-1.3479843-.7901917-1.5205536.3386612-.2124557 1.208519-.7504272 1.2085266.7504272.3386612.2124557-.7901917 1.5205536.1062317 1.3546295.5445023 6.9124985z" fill="#f37735"/><path d="m76.7991714 90.3833923c-.1594009 0-.3187637-.013298-.4781189-.0332336-.0464859.0066452-.099617 0-.1460648-.0066452-.0199432.0066452-.0398407 0-.0597839-.0066528-.2124863-.0066452-.418335-.0265808-.6308289-.0597382-.6706696-.0663834-1.3280411-.1792984-1.9721222-.3187943l-3.2271423-6.2284546 1.8990936-1.1089478-2.1647186-1.1951904.9163589-4.8008652h.0066452l2.5631105-1.3148345h.0066528v.0066452l.0132523.053093.7238007 3.3267593.1925507.8832016.166008.7702103v.0066452l1.7264786 7.9151764.2988205 1.3678436z" fill="#293b44"/><path d="m83.2999344 82.6209259 1.8990936 1.1089478-3.2271423 6.2284546c-.6441193.1394958-1.2948532.2524109-1.9588699.3187943-.2124939.0265045-.4249878.053093-.6440811.0597382-.0199432.0066528-.0398407.013298-.0597839.0066528-.0464859.0066452-.0929718.0132904-.1460648.0066452-.1527557.0199356-.3121109.0332336-.4781189.0332336l.166008-.743782.2988205-1.3678436 1.7197952-7.901886.1726456-.7967911.1925964-.8765564.7304077-3.3532639.0066452-.0265884v-.0066452h.0066452l2.563118 1.3148346h.0066452l.9230042 4.8008652z" fill="#293b44"/><path d="m69.9356918 64.4195557c.2507553.9528732.7764664 1.6834641.8450775 3.3065109h.4269943c-.1158752-.6951447-.2841415-2.4388046.2841415-5.0773697 0 0 1.2879105-.1073494 2.6831589-1.5561638 0 0-.3756638 1.12677-1.2879028 1.7171288 0 0 2.1465225-.6975975 4.6686554-3.1660538 0 0-.2146378 1.5024338-2.6831512 3.0050888 0 0 3.4344788-.5366325 5.1516647-2.7905045 0 0-.6976013 1.5562744-2.3611679 2.5221901 0 0 3.2734604-.5366325 4.7223358-3.327137 0 0 1.3952484-.160965 1.5562744 2.2538719.160965 2.4148407.1072922 3.1124382.5902481 3.488102l-.2402267 2.9308472h.3035431c.1564484-.8168716.5827255-2.8464584 1.0099411-3.145546 0 0 1.395256-6.7615051-1.5562134-8.0494614 0 0-1.0195923-4.4540176-7.888443-2.7903938-6.8689117 1.6635132-6.6005936 6.3858414-6.6005936 6.3858414s.1073457 3.2735176.3756638 4.2930489z" fill="#344e5c"/><path d="m17.180048 76.8759613c.3944435 2.4530258 2.5199547 4.3349457 5.0824814 4.3349457 2.5625553 0 4.688097-1.8819199 5.08251-4.3350067-.904686-.6295624-.8639374-1.4953461-.8639374-1.4953461v-2.6813431h-8.437088l-.0209961 2.8741379s.0617752.6730194-.8429699 1.3026123z" fill="#d6b24e"/><path d="m28.9114399 62.1710434c-.0014496 0-.0028439.4599266-.0042362.4599266-.0897923-3.6569824-3.0437698-7.0800819-6.6446266-7.0800819s-6.5548906 3.4230995-6.6446266 7.0800819c-.0013933 0-.0027866-.4599266-.0042362-.4599266-.7341614 0-1.3292599 1.6589317-1.3292599 3.1387329 0 1.479805.5950985 2.6792526 1.3292599 2.6792526v.0956573c0 1.8279343 1.592392 4.1407776 3.2185593 6.0260086 1.8131638 2.1020432 5.0473862 2.1020432 6.8605499 0 1.6262245-1.885231 3.2186165-4.1980743 3.2186165-6.0260086v-.0956573c.7341042 0 1.329258-1.1994476 1.329258-2.6792526-.0000001-1.4798012-.5951539-3.1387329-1.3292581-3.1387329z" fill="#ffd25a"/><path d="m27.550169 79.3560562-1.2018795 3.5392075-2.4634953 7.2179184c-.0199413.0066452-.0398407.0132904-.0597801.0066452-.0464859.0066452-.0929737.0132904-.1460648.0066452l-.3121128-.7105484-.6839218-1.5670013-.0730724-6.653511-.0265465-2.2444839.8831615-.902977.4648228-.4715118 1.8194141.8964157h.0066471l.8100872.3984756.6241837.3054276z" fill="#e6e7e8"/><path d="m39.5158615 80.3387909c-2.7955475 4.7344818-7.4835434 8.2139511-13.0281124 9.3958511-.6441231.1395035-1.2948513.2524109-1.9588737.3188019l.849968-2.8751907.9694462-4.2829895.0066471-.0464478.8366756-3.6720581.2191372-.9362946 1.6467628-1.8392792h.0066471c.2722301.0596619 8.2205963 1.8392793 10.4517021 3.9376069z" fill="#4388b9"/><path d="m26.4932842 75.0859756-4.2351341 2.2055054 3.3035412 2.0631943z" fill="#dad7dc"/><path d="m21.9325676 78.9509277-.0265884 2.2444839-.0730324 6.653511-.6839218 1.5670013-.3121109.7105484c-.0464859.0066452-.0996189 0-.1460648-.0066452-.0199413.0066452-.0398407 0-.0597801-.0066452l-2.4900837-7.304245v-.0066452l-1.175333-3.4462357.3519516-.1726532.637476-.3120728.8100872-.3984756 1.8194141-.8964157.4648247.4715118z" fill="#e6e7e8"/><path d="m20.0002403 90.0534439c-.6706696-.066391-1.3280449-.1792984-1.9721279-.3188019-5.5446091-1.1885452-10.232605-4.6680145-13.0281124-9.3958511 2.2443986-2.1049805 10.1794319-3.8779449 10.4517031-3.9376068h.0066471l1.6467619 1.8392792.212492.9362946v.0066452l.8233814 3.6188889v.0066452l.9960327 4.3693161z" fill="#4388b9"/><path d="m18.0230179 75.0859756 4.2351322 2.2055054-3.3035412 2.0631943z" fill="#dad7dc"/><path d="m23.8250141 90.1198273c-.0464859.0066452-.0929737.0132904-.1460648.0066452-.1527538.0199432-.3121128.0332336-.478117.0332336-.3120728.0199432-.6241837.0265045-.9429016.0265045s-.6308289-.0065613-.9428997-.0265045c-.159399 0-.318758-.0132904-.478117-.0332336-.0464859.0066452-.0996189 0-.1460648-.0066452l.1593571-2.0717468.5445042-6.919136.106226-1.3479843-.7901878-1.5205612.3386574-.2124481 1.2085247-.7504272 1.2085266.7504272.3386574.2124481-.7901878 1.5205612.106226 1.3546295.5445023 6.9124908z" fill="#db584d"/><path d="m21.3150311 90.1597061c-.159399 0-.318758-.0132904-.478117-.0332336-.0464859.0066452-.0996189 0-.1460648-.0066452-.0199413.0066452-.0398407 0-.0597801-.0066452-.212492-.0066452-.4183369-.0265884-.6308289-.0597382-.6706696-.066391-1.3280449-.1792984-1.9721279-.3188019l-3.2271376-6.228447 1.8990927-1.1089478-2.1647177-1.1951904.9163532-4.8008728h.0066471l2.5631151-1.314827h.0066471v.0066452l.0132542.053093.7238007 3.3267593.1925526.8832016.1660061.7702026v.0066452l1.7264805 7.9151764.2988186 1.3678436z" fill="#509fd7"/><path d="m27.815794 82.3972473 1.8990936 1.1089478-3.2271385 6.228447c-.6441231.1395035-1.2948513.2524109-1.9588737.3188019-.212492.0265045-.424984.053093-.6440811.0597382-.0199413.0066452-.0398407.0132904-.0597801.0066452-.0464859.0066452-.0929737.0132904-.1460648.0066452-.1527538.0199432-.3121128.0332336-.478117.0332336l.1660042-.743782.2988186-1.3678436 1.7197952-7.9018784.1726513-.7967987.1925926-.8765488.7304077-3.3532639.0066471-.0265884v-.0066452h.0066471l2.5631161 1.314827h.0066471l.9230003 4.8008728z" fill="#509fd7"/><path d="m15.6654854 67.9154434s-2.0815258-4.7705765-.5947218-9.2632523c0 0 .9345636-4.2996597 5.9896975-5.0214386 0 0 3.6532898-.6754608 6.3295364 3.6319504 0 0 5.1825733 1.7137032 1.6567249 10.6527405 0 0 .467907-2.2322006-.4241753-3.9922218-.8920822-1.7600174-1.0639-3.1693764-1.0639-3.1693764s-.805851-1.2216454-3.2696972-.7121658-4.7577744-.1389503-4.7577744-.1389503-2.4638462-.8336906-2.6337662 2.2231827c0 0-.4248028 1.9915962-.9345636 2.6863441-.5097608.6947403-.2973603 3.1031875-.2973603 3.1031875z" fill="#344e5c"/><path d="m64.8395691 61.7833214h-1.9327545c-.293869-1.3835907-.8110657-2.6814194-1.5012474-3.8676643l1.4389229-1.3042831c.4411926-.3999214.4746971-1.0817299.074852-1.5225372l-2.2502976-2.4831468c-.3999214-.4408073-1.0817261-.4746208-1.5229187-.0743904l-1.4400749 1.3052063c-1.4578285-1.0519142-3.1326027-1.8197899-4.9524689-2.2061882v-1.9329071c0-.5954285-.4827652-1.0780411-1.0781937-1.0780411h-3.3507767c-.5954285 0-1.0781937.4826126-1.0781937 1.0780411v1.9329071c-1.9306831.4097595-3.6977501 1.2495689-5.2152138 2.4023056l-1.4735069-1.2701607c-.4510269-.3885498-1.1318321-.3381386-1.5206146.112812l-2.187664 2.5378685c-.388855.4509506-.3383675 1.1318321.1126595 1.5206909l1.4628258 1.2609406c-.6089516 1.1090851-1.0612106 2.3150024-1.3317184 3.5885468h-1.9327583c-.5955048 0-1.0781937.4829216-1.0781937 1.0783501v3.3506241c0 .5957336.4826889 1.0783463 1.0781937 1.0783463h1.9327583c.293869 1.3835907.8110657 2.6817245 1.5012474 3.8676605l-1.4389229 1.3042831c-.4411926.3999252-.4746971 1.0817337-.074852 1.5228424l2.2502975 2.4828491c.3999214.4411087 1.0817261.474617 1.5229187.0746918l1.4400749-1.3052063c1.4578285 1.0519104 3.1326027 1.8197937 4.9524689 2.206192v1.9326019c0 .5954208.4827652 1.0783463 1.0781937 1.0783463h3.3507767c.5954285 0 1.0781937-.4829254 1.0781937-1.0783463v-1.9326019c1.930603-.4100723 3.6976738-1.2495728 5.2150612-2.4026184l1.4735832 1.2701645c.4510269.3891678 1.1318321.3384476 1.5206146-.1125031l2.1878166-2.5378723c.3887787-.4512558.3382912-1.1318283-.1127357-1.5209961l-1.4628258-1.2609406c.6089516-1.1087799 1.0612106-2.3146973 1.3317184-3.5885468h1.9327545c.5955048 0 1.0781937-.4826126 1.0781937-1.0783463v-3.3506241c0-.5954283-.4826889-1.0783499-1.0781937-1.0783499zm-14.8395691 7.5370598c-2.6417656 0-4.7833214-2.1416321-4.7833214-4.7834015 0-2.6417656 2.1415558-4.7830887 4.7833214-4.7830887s4.7833214 2.1413231 4.7833214 4.7830887c0 2.6417694-2.1415558 4.7834015-4.7833214 4.7834015z" fill="#328270"/><path d="m50 55.0255165c-5.2531013 0-9.5116196 4.2583656-9.5116196 9.511776 0 5.2527924 4.2585182 9.5114594 9.5116196 9.5114594s9.5116196-4.258667 9.5116196-9.5114594c0-5.2534104-4.2585183-9.511776-9.5116196-9.511776zm0 16.4291191c-3.8204803 0-6.9177322-3.097023-6.9177322-6.9176559 0-3.8203239 3.0972519-6.9176521 6.9177322-6.9176521 3.8205566 0 6.9177322 3.0973282 6.9177322 6.9176521 0 3.8206329-3.0971756 6.9176559-6.9177322 6.9176559z" fill="#48b19a"/></svg>