<svg id="Capa_1" enable-background="new 0 0 512 512" height="512" viewBox="0 0 512 512" width="512" xmlns="http://www.w3.org/2000/svg"><g><path d="m71.35 194.672c2.636-6.094 5.556-11.991 8.702-17.66 3.997-7.257 8.391-14.145 13.124-20.693 2.41-3.345 7.115-4.082 10.46-1.672 3.345 2.437 4.082 7.115 1.673 10.459-4.479 6.18-8.532 12.558-12.189 19.163-1.898 3.401-3.685 6.888-5.357 10.403h27.326c4.167 0 7.512 3.345 7.512 7.483v35.518 30.132c0 6.945-1.502 13.55-4.195 19.531 7.881 3.288 14.6 7.483 19.73 12.331 7.37 6.916 11.594 15.222 11.594 24.236v36.595c0 4.139-3.374 7.512-7.513 7.512h-46.574c2.466 4.223 5.102 8.362 7.88 12.359 5.188 7.455 10.856 14.457 16.979 20.948 2.835 3.004 2.693 7.738-.34 10.573-3.005 2.835-7.738 2.692-10.573-.312-6.661-7.115-12.812-14.684-18.368-22.649-4.649-6.69-8.901-13.663-12.729-20.92h-70.98c-4.138 0-7.512-3.373-7.512-7.512v-36.595c0-8.957 4.167-17.178 11.424-24.094 5.159-4.904 11.962-9.156 19.899-12.473-2.693-5.981-4.195-12.586-4.195-19.531v-30.132-12.982c0-8.277 3.373-15.789 8.816-21.231 5.442-5.414 12.955-8.788 21.204-8.788h14.202zm398.527 61.824-39.572-13.408-25.881 12.699v12.019c0 8.986 3.686 17.178 9.609 23.103 5.925 5.924 14.117 9.609 23.103 9.609 9.015 0 17.178-3.685 23.131-9.609 5.925-5.924 9.61-14.117 9.61-23.103zm-65.453-17.348 21.657-10.602c1.785-1.049 3.997-1.332 6.122-.624l37.674 12.756v-15.987c0-4.139-1.674-7.88-4.423-10.602-2.722-2.749-6.463-4.422-10.602-4.422h-35.434c-4.11 0-7.852 1.672-10.602 4.422-2.721 2.721-4.394 6.463-4.394 10.602v14.457zm-362.301-8.986h65.481v-20.494h-50.457c-4.11 0-7.88 1.672-10.602 4.422-2.721 2.721-4.423 6.463-4.423 10.602v5.47zm65.481 14.995h-65.481v22.649c0 8.986 3.686 17.178 9.639 23.103 5.925 5.924 14.117 9.609 23.103 9.609 8.985 0 17.178-3.685 23.102-9.609 5.953-5.924 9.638-14.117 9.638-23.103v-22.649zm181.136 148.338c-10.715 1.559-28.177 1.389-42.661-11.395-5.074 2.948-13.097 6.236-22.819 5.443v18.17c0 8.986 3.686 17.178 9.638 23.131 5.925 5.924 14.116 9.609 23.102 9.609 9.014 0 17.178-3.685 23.131-9.609 5.924-5.953 9.609-14.145 9.609-23.131zm-65.48-20.977c10.914 1.531 18.596-5.613 18.596-5.641l.028.028.17-.17c3.118-2.693 7.823-2.353 10.545.766 11.735 13.493 28.006 12.5 36.142 10.913v-15.817c0-4.11-1.701-7.88-4.422-10.602-2.722-2.721-6.463-4.422-10.602-4.422h-35.434c-4.109 0-7.88 1.701-10.602 4.422-2.721 2.722-4.422 6.492-4.422 10.602v9.921zm-113.303-72.453c-9.043 9.836-21.713 15.477-35.093 15.477s-26.051-5.641-35.094-15.449c-7.455 2.778-13.635 6.378-18.028 10.545-4.28 4.082-6.747 8.617-6.747 13.266v29.112h119.738v-29.112c0-4.677-2.495-9.241-6.86-13.351-4.394-4.139-10.518-7.71-17.916-10.488zm374.915-32.259c0 6.945-1.502 13.55-4.195 19.531 7.938 3.316 14.712 7.568 19.871 12.444 7.285 6.917 11.452 15.137 11.452 24.123v36.595c0 4.139-3.345 7.512-7.483 7.512h-71.265c-3.855 7.001-8.192 13.861-12.926 20.523-5.641 7.909-11.82 15.449-18.482 22.536-2.835 3.005-7.569 3.147-10.573.312-3.005-2.835-3.147-7.568-.34-10.573 6.235-6.604 11.99-13.634 17.206-20.948 2.749-3.855 5.357-7.795 7.823-11.849h-46.177c-4.139 0-7.512-3.373-7.512-7.512v-36.595c0-9.014 4.223-17.263 11.564-24.207 5.131-4.848 11.878-9.071 19.787-12.359-2.722-5.981-4.224-12.586-4.224-19.531v-43.115c0-8.277 3.401-15.789 8.815-21.231 5.442-5.414 12.954-8.788 21.203-8.788h4.904c-1.616-3.458-3.373-6.86-5.244-10.205-3.714-6.69-7.88-13.21-12.444-19.446-2.438-3.345-1.728-8.022 1.616-10.459 3.316-2.438 7.993-1.73 10.46 1.615 4.875 6.69 9.383 13.72 13.436 21.033 3.146 5.641 6.01 11.48 8.59 17.461h14.116c8.276 0 15.79 3.374 21.232 8.788 5.414 5.442 8.787 12.954 8.787 21.231v43.114zm-12.643 32.287c-9.043 9.808-21.686 15.449-35.094 15.449-13.38 0-26.022-5.641-35.093-15.449-7.398 2.75-13.55 6.35-17.943 10.488-4.338 4.11-6.804 8.674-6.804 13.323v29.112h119.709v-29.112c0-4.649-2.467-9.184-6.775-13.266-4.365-4.167-10.544-7.767-18-10.545zm-168.493 105.619c0 6.945-1.502 13.578-4.195 19.531 7.937 3.345 14.712 7.568 19.871 12.472 2.806 2.665 5.159 5.528 6.974 8.561 6.009-2.551 11.849-5.414 17.546-8.589 7.88-4.394 15.478-9.411 22.733-14.939 3.289-2.523 7.966-1.899 10.488 1.389 2.495 3.288 1.871 7.994-1.417 10.488-7.767 5.925-15.959 11.339-24.548 16.129-6.604 3.685-13.408 7.002-20.353 9.865.028.396.028.822.028 1.219v36.595c0 4.139-3.346 7.483-7.483 7.483h-134.732c-4.139 0-7.512-3.345-7.512-7.483v-36.595c0-.397.028-.794.028-1.19-7.144-2.92-14.088-6.208-20.806-9.865-8.561-4.649-16.725-9.921-24.492-15.732-3.316-2.466-3.968-7.143-1.502-10.46 2.467-3.289 7.172-3.969 10.46-1.474 7.172 5.357 14.74 10.205 22.677 14.542 5.84 3.203 11.878 6.066 18.086 8.646 1.814-3.004 4.139-5.839 6.916-8.504 5.159-4.932 11.962-9.184 19.985-12.529-2.723-5.981-4.225-12.586-4.225-19.559v-43.115c0-8.249 3.373-15.76 8.816-21.203 5.443-5.442 12.955-8.815 21.203-8.815h35.434c8.277 0 15.789 3.373 21.203 8.815 5.443 5.443 8.816 12.954 8.816 21.203v43.114zm-12.643 32.287c-9.042 9.836-21.713 15.449-35.093 15.449-13.379 0-26.051-5.613-35.093-15.449-7.483 2.778-13.664 6.435-18.086 10.63-4.252 4.053-6.689 8.589-6.689 13.21v29.083h119.736v-29.083c0-4.649-2.466-9.213-6.746-13.266-4.394-4.168-10.573-7.797-18.029-10.574zm-164.411-297.525c-2.977 2.863-7.711 2.778-10.573-.199-2.863-2.976-2.778-7.71.198-10.573 5.953-5.726 12.19-11.055 18.738-15.959 5.414-4.053 11.14-7.88 17.121-11.452 1.928-25.597 13.096-48.614 30.218-65.708 18.821-18.85 44.873-30.5 73.616-30.5 28.772 0 54.795 11.65 73.646 30.5 16.978 16.979 28.119 39.827 30.16 65.197 5.867 3.6 11.537 7.512 16.979 11.65 6.549 4.989 12.842 10.403 18.795 16.214 2.977 2.863 3.033 7.597.17 10.573-2.892 2.948-7.625 3.005-10.573.142-5.528-5.358-11.368-10.375-17.463-15.024-2.607-2.013-5.271-3.912-7.937-5.754-2.324 28.488-15.052 47.849-27.27 66.388-11.055 16.809-21.656 32.91-21.826 54.539l.028 34.667c0 9.978-4.082 19.021-10.658 25.597-6.55 6.548-15.62 10.63-25.569 10.63h-36.935c-9.979 0-19.049-4.082-25.599-10.63-6.548-6.577-10.629-15.619-10.629-25.597l.027-34.667c-.198-21.628-10.771-37.73-21.826-54.539-12.189-18.482-24.86-37.729-27.241-66.047-2.806 1.871-5.556 3.827-8.249 5.839-6.179 4.594-11.962 9.526-17.348 14.713zm89.632 123.336h79.371v-15.194h-79.371zm79.059 14.995h-78.746c.766 4.393 2.891 8.334 5.924 11.367 3.855 3.855 9.156 6.236 14.996 6.236h36.935c5.811 0 11.111-2.381 14.967-6.236 3.033-3.033 5.158-6.974 5.924-11.367zm-46.602-111.373c-1.219-4.479-3.345-10.602-5.754-17.604-6.775-19.587-15.789-45.666-15.789-65.367 0-18.907 7.229-32.4 28.771-32.4s28.8 13.493 28.8 32.4c0 19.701-9.014 45.78-15.789 65.367-2.438 7.03-4.563 13.21-5.811 17.689-1.077 3.997-5.188 6.321-9.156 5.244-2.691-.738-4.619-2.835-5.272-5.329zm-6.547-82.971c0 16.384 7.568 39.203 13.776 57.26 6.236-18.057 13.805-40.876 13.805-57.26 0-10.148-3.486-17.405-13.805-17.405-10.318.001-13.776 7.258-13.776 17.405zm6.293 109.446c0-4.139 3.345-7.483 7.483-7.483s7.512 3.345 7.512 7.483v7.795c0 4.139-3.373 7.484-7.512 7.484s-7.483-3.345-7.483-7.484zm-32.571 39.714h80.107c1.985-22.422 12.757-38.806 23.982-55.843 12.273-18.652 25.114-38.183 25.114-67.549 0-24.633-9.977-46.914-26.106-63.043-16.129-16.129-38.41-26.107-63.043-26.107-24.605 0-46.886 9.978-63.015 26.107-16.13 16.129-26.107 38.41-26.107 63.043 0 29.367 12.841 48.897 25.115 67.549 11.196 17.037 21.997 33.42 23.953 55.843z"/></g></svg>