<svg height="512" viewBox="0 0 58 58" width="512" xmlns="http://www.w3.org/2000/svg"><g id="Page-1" fill="none" fill-rule="evenodd"><g id="006---Completed-Schedule" fill-rule="nonzero"><path id="Shape" d="m48 28.86v-23.86c-.0032948-1.10320187-.8967981-1.9967052-2-2h-44c-1.10320187.0032948-1.9967052.89679813-2 2v39c.0032948 1.1032019.89679813 1.9967052 2 2h26.3z" fill="#f0c419"/><g fill="#f29c1f"><rect id="Rectangle-path" height="5" rx="1" width="7" x="4" y="10"/><rect id="Rectangle-path" height="5" rx="1" width="7" x="15" y="10"/><rect id="Rectangle-path" height="5" rx="1" width="7" x="26" y="10"/><rect id="Rectangle-path" height="5" rx="1" width="7" x="37" y="10"/><rect id="Rectangle-path" height="5" rx="1" width="7" x="4" y="19"/><rect id="Rectangle-path" height="5" rx="1" width="7" x="15" y="19"/><rect id="Rectangle-path" height="5" rx="1" width="7" x="26" y="19"/><rect id="Rectangle-path" height="5" rx="1" width="7" x="37" y="19"/><rect id="Rectangle-path" height="5" rx="1" width="7" x="4" y="28"/><rect id="Rectangle-path" height="5" rx="1" width="7" x="15" y="28"/><path id="Shape" d="m31.83 33h-4.83c-.5522847 0-1-.4477153-1-1v-3c0-.5522847.4477153-1 1-1h5c.5522847 0 1 .4477153 1 1v2.83z"/></g><rect id="Rectangle-path" fill="#95a5a5" height="6" rx="2" width="4" x="4"/><rect id="Rectangle-path" fill="#95a5a5" height="6" rx="2" width="4" x="40"/><rect id="Rectangle-path" fill="#f29c1f" height="5" rx="1" width="7" x="4" y="37"/><rect id="Rectangle-path" fill="#f29c1f" height="5" rx="1" width="7" x="15" y="37"/><circle id="Oval" cx="43" cy="43" fill="#26b99a" r="15"/><path id="Shape" d="m32.753 40c-.1245987.0001582-.248103-.0232533-.364-.069-.2480765-.0965755-.4474061-.2880807-.5538331-.5320932s-.1111659-.5203891-.0131669-.7679068c1.5255136-3.8586285 4.9229018-6.6656261 9-7.436.3513707-.0650223.7107396.0623486.942736.3341334.2319963.2717848.3013743.6466928.182.9835-.1193744.3368071-.4093653.5843443-.760736.6493666-3.3981426.6430395-6.2292894 2.9834541-7.5 6.2-.1494656.384886-.5201113.6383393-.933.638z" fill="#81ccb8"/><path id="Shape" d="m41 51c-.2651948-.0000566-.5195073-.1054506-.707-.293l-4-4c-.3789722-.3923789-.3735524-1.0160848.0121814-1.4018186s1.0094397-.3911536 1.4018186-.0121814l3.074 3.074 7.351-12.867c.1725461-.3192653.5045188-.5199915.8673996-.5244702s.6997064.187993.8800796.5029026c.1803732.3149095.1759798.7028239-.0114792 1.0135676l-8 14c-.1769376.3130944-.5083695.507066-.868.508z" fill="#ecf0f1"/><circle id="Oval" cx="32" cy="43" fill="#81ccb8" r="1"/></g></g></svg>