<svg height="496pt" viewBox="0 0 496 496" width="496pt" xmlns="http://www.w3.org/2000/svg"><path d="m296 488h-48v-117.28125c0-6.71875 2.078125-13.117188 5.761719-18.320312 4.71875-6.71875 11.917969-11.597657 20.476562-13.199219l44.800781-8.078125 8.960938 44.878906 40-24 40 24 8.960938-44.878906 44.800781 8.078125c15.199219 2.800781 26.238281 16.082031 26.238281 31.519531v117.28125h-80v-32h-8c-17.679688 0-32 14.320312-32 32zm0 0" fill="#e6e9ed"/><path d="m400 328 16.960938 3.121094-8.960938 44.878906-40-24zm0 0" fill="#b4dd7f"/><path d="m336 328 32 24-40 24-8.960938-44.878906zm0 0" fill="#b4dd7f"/><path d="m408 456v32h-40c0-17.679688 14.320312-32 32-32zm0 0" fill="#f0d0b4"/><path d="m264 256v48l-19.761719 3.28125c-2.316406 8.640625-5.679687 16.796875-10 24.320312l11.601563 16.320313-33.917969 33.917969-16.320313-11.601563c-7.523437 4.320313-15.679687 7.683594-24.320312 10l-3.28125 19.761719h-48l-3.28125-19.761719c-8.640625-2.316406-16.796875-5.679687-24.320312-10l-16.320313 11.601563-33.917969-33.917969 11.601563-16.320313c-4.320313-7.523437-7.683594-15.679687-10-24.320312l-19.761719-3.28125v-48l19.761719-3.28125c1.117187-4.320312 2.558593-8.398438 4.160156-12.480469 8 8 16.957031 14.960938 26.71875 20.722657-1.761719 6.078124-2.640625 12.480468-2.640625 19.039062 0 39.761719 32.238281 72 72 72s72-32.238281 72-72c0-6.558594-.878906-12.960938-2.640625-19.039062 9.761719-5.761719 18.71875-12.722657 26.71875-20.722657 1.601563 4.082031 3.042969 8.160157 4.160156 12.480469zm0 0" fill="#ffc729"/><path d="m213.359375 260.960938c1.761719 6.078124 2.640625 12.480468 2.640625 19.039062 0 39.761719-32.238281 72-72 72s-72-32.238281-72-72c0-6.558594.878906-12.960938 2.640625-19.039062 9.28125 5.597656 19.359375 10.078124 29.917969 13.277343-.238282 1.921875-.558594 3.761719-.558594 5.761719 0 22.078125 17.921875 40 40 40s40-17.921875 40-40c0-2-.320312-3.839844-.558594-5.761719 10.558594-3.199219 20.636719-7.679687 29.917969-13.277343zm0 0" fill="#fcd770"/><path d="m104.558594 274.238281c-10.558594-3.199219-20.636719-7.679687-29.917969-13.277343-9.761719-5.761719-18.71875-12.722657-26.71875-20.722657-24.640625-24.636719-39.921875-58.636719-39.921875-96.238281 0-75.121094 60.878906-136 136-136s136 60.878906 136 136c0 9.441406-.960938 18.558594-2.71875 27.441406-5.519531 26.558594-18.722656 50.320313-37.203125 68.796875-8 8-16.957031 14.960938-26.71875 20.722657-9.28125 5.597656-19.359375 10.078124-29.917969 13.277343-12.480468 3.761719-25.679687 5.761719-39.441406 5.761719s-26.960938-2-39.441406-5.761719zm0 0" fill="#b4dd7f"/><path d="m248 144c0 57.4375-46.5625 104-104 104s-104-46.5625-104-104 46.5625-104 104-104 104 46.5625 104 104zm0 0" fill="#e6e9ed"/><path d="m312 208c-17.679688 0-32 14.320312-32 32v-51.121094c0-5.839844.558594-11.597656 1.761719-17.117187 7.839843-38.640625 42.078125-67.761719 83.117187-67.761719 11.28125 0 22.242188 2.238281 32.480469 6.480469 10.160156 4.238281 19.601563 10.480469 27.519531 18.398437l7.121094 7.121094c7.199219 2.398438 13.121094 6.960938 17.359375 12.800781 4.242187 5.757813 6.640625 12.960938 6.640625 20.480469v70.71875c0-17.679688-14.320312-32-32-32h-1.359375c-14.480469 0-28.402344-5.761719-38.640625-16-10.238281 10.238281-24.160156 16-38.640625 16zm0 0" fill="#b27946"/><g fill="#f0d0b4"><path d="m368 312c11.601562 0 22.398438-3.519531 31.28125-9.519531l.71875 1.519531v24l-32 24-32-24v-24l.71875-1.519531c23.601562 9.121093 27.441406 9.519531 31.28125 9.519531zm0 0"/><path d="m456 240c0 17.679688-14.320312 32-32 32l-2.160156-.558594c1.441406-4.882812 2.160156-10.082031 2.160156-15.441406v-48c17.679688 0 32 14.320312 32 32zm0 0"/><path d="m312 256c0 5.359375.71875 10.558594 2.160156 15.441406l-2.160156.558594c-17.679688 0-32-14.320312-32-32s14.320312-32 32-32zm0 0"/><path d="m424 208v48c0 5.359375-.71875 10.558594-2.160156 15.441406-3.679688 12.796875-11.761719 23.757813-22.558594 31.039063-8.882812 6-19.679688 9.519531-31.28125 9.519531-3.839844 0-7.679688-.398438-31.28125-9.519531-3.039062-2.082031-5.757812-4.320313-8.320312-6.878907-6.636719-6.640624-11.597657-14.882812-14.238282-24.160156-1.441406-4.882812-2.160156-10.082031-2.160156-15.441406v-48h33.359375c14.480469 0 28.402344-5.761719 38.640625-16 10.238281 10.238281 24.160156 16 38.640625 16zm0 0"/></g><path d="m136 104v48h32v-16h-16v-32zm0 0"/><path d="m463.160156 331.351562-55.160156-10.03125v-15.441406c8.550781-6.871094 15.28125-15.886718 19.414062-26.222656 20.433594-1.769531 36.585938-18.769531 36.585938-39.65625v-70.703125c0-17.921875-11.015625-33.839844-27.609375-40.21875l-5.878906-5.878906c-17.542969-17.542969-40.863281-27.199219-65.664063-27.199219-32.144531 0-60.519531 16.433594-77.191406 41.328125-3.511719-76.296875-66.511719-137.328125-143.65625-137.328125-79.398438 0-144 64.601562-144 144 0 37.878906 14.816406 72.289062 38.816406 98.023438-.433594 1.207031-.929687 2.382812-1.328125 3.617187l-21.488281 3.582031v61.5625l21.496094 3.574219c1.847656 5.769531 4.160156 11.34375 6.886718 16.679687l-12.648437 17.714844 43.511719 43.511719 17.714844-12.648437c5.335937 2.734374 10.910156 5.039062 16.679687 6.886718l3.574219 21.496094h14.785156v16h16v-32h-17.214844l-3.023437-18.121094-4.953125-1.34375c-7.921875-2.152344-15.472656-5.269531-22.441406-9.269531l-4.457032-2.554687-14.925781 10.664062-24.359375-24.359375 10.664062-14.925781-2.554687-4.457032c-4-6.96875-7.125-14.511718-9.269531-22.441406l-1.34375-4.953125-18.121094-3.023437v-34.4375l18.121094-3.023438 1.34375-4.953125c.046875-.167969.121094-.320312.167968-.480469 4.414063 3.703126 9.078126 7.105469 13.917969 10.273438-.992187 5.046875-1.550781 10.191406-1.550781 15.40625 0 44.113281 35.886719 80 80 80s80-35.886719 80-80c0-5.214844-.558594-10.359375-1.542969-15.40625 4.839844-3.160156 9.503907-6.570312 13.917969-10.273438.050781.167969.121094.320313.167969.480469l1.34375 4.953125 18.113281 3.03125v34.4375l-18.121094 3.023438-1.34375 4.953125c-2.152344 7.921875-5.269531 15.472656-9.269531 22.441406l-2.554687 4.457031 10.664062 14.925782-24.359375 24.359374-14.925781-10.664062-4.457032 2.554688c-6.96875 4-14.511718 7.125-22.441406 9.269531l-4.953125 1.34375-4.132812 24.808593 15.78125 2.625 2.472656-14.808593c5.769531-1.847657 11.34375-4.160157 16.679687-6.886719l17.714844 12.648438 27.804688-27.808594c-.328125 2.039062-.558594 4.109375-.558594 6.238281v109.296875h-96v-8h-16v24h368v-125.296875c0-19.335937-13.816406-35.878906-32.839844-39.351563zm-61.160156 5.144532 5.542969 1.007812-5.160157 25.792969-20.0625-12.039063zm-10-12.496094-24 18-24-18v-8.710938c7.414062 3.015626 15.511719 4.710938 24 4.710938s16.585938-1.695312 24-4.710938zm-58 12.496094 19.679688 14.761718-20.0625 12.039063-5.160157-25.792969zm34-32.496094c-26.472656 0-48-21.527344-48-48v-40h25.375c14.183594 0 27.648438-4.679688 38.625-13.320312 9.238281 7.273437 20.289062 11.535156 32 12.769531v40.550781c0 26.472656-21.527344 48-48 48zm-63.65625-41.367188c-9.464844-3.21875-16.34375-12.089843-16.34375-22.632812 0-10.414062 6.710938-19.214844 16-22.527344v38.527344c0 2.238281.121094 4.457031.34375 6.632812zm127.3125 0c.222656-2.175781.34375-4.394531.34375-6.632812v-38.527344c9.289062 3.3125 16 12.113282 16 22.527344 0 10.542969-6.878906 19.414062-16.34375 22.632812zm-66.808594-150.632812c20.519532 0 39.832032 7.992188 54.34375 22.503906l8.488282 8.488282 1.792968.601562c11.078125 3.6875 18.527344 14.023438 18.527344 25.703125v38.902344c-4.671875-3.535157-10.054688-6.183594-16-7.390625v-16.808594h-16v15.480469c-9.9375-1.410157-19.121094-5.921875-26.34375-13.136719l-5.65625-5.664062-5.65625 5.664062c-8.808594 8.808594-20.511719 13.65625-32.96875 13.65625h-25.375v-16h-16v16.808594c-5.945312 1.214844-11.328125 3.855468-16 7.390625v-19.351563c0-42.367187 34.480469-76.847656 76.847656-76.847656zm-220.847656-96c70.574219 0 128 57.425781 128 128s-57.425781 128-128 128-128-57.425781-128-128 57.425781-128 128-128zm64 264c0 35.289062-28.710938 64-64 64s-64-28.710938-64-64c0-2.335938.304688-4.625.550781-6.929688 5.007813 2.472657 10.167969 4.65625 15.480469 6.539063 0 .132813-.03125.261719-.03125.390625 0 26.472656 21.527344 48 48 48 9.414062 0 18.558594-2.769531 26.457031-7.984375l-8.839843-13.34375c-5.265626 3.488281-11.351563 5.328125-17.617188 5.328125-16.136719 0-29.382812-12.039062-31.550781-27.59375 10.167969 2.289062 20.703125 3.59375 31.550781 3.59375 10.894531 0 21.472656-1.320312 31.679688-3.625-.65625 4.703125-2.34375 9.21875-5.007813 13.234375l13.34375 8.839844c5.214844-7.890625 7.984375-17.035157 7.984375-26.449219 0-.128906-.03125-.257812-.03125-.390625 5.3125-1.890625 10.472656-4.066406 15.480469-6.539063.246093 2.304688.550781 4.59375.550781 6.929688zm35.617188 51.039062c2.734374-5.335937 5.039062-10.910156 6.886718-16.679687l21.496094-3.574219v-61.5625l-21.496094-3.582031c-.390625-1.226563-.886718-2.410156-1.328125-3.617187 9.007813-9.65625 16.710938-20.511719 22.816407-32.359376v30.335938c0 20.886719 16.152343 37.886719 36.582031 39.65625 4.128906 10.34375 10.867187 19.351562 19.417969 26.222656v15.441406l-55.167969 10.03125c-8.257813 1.503907-15.433594 5.578126-21.015625 11.167969zm156.382812 148.960938h-22.527344c3.3125-9.289062 12.113282-16 22.527344-16zm80 0h-64v-16h32v-72h-16v56h-32c-19.3125 0-35.472656 13.769531-39.191406 32h-56.808594v-88h-16v88h-32v-109.296875c0-11.597656 8.289062-21.527344 19.703125-23.613281l37.007813-6.722656 9.664062 48.34375 45.625-27.375 45.617188 27.367187 9.664062-48.335937 37 6.722656c11.429688 2.078125 19.71875 12.015625 19.71875 23.613281zm0 0"/><path d="m128 440h16v16h-16zm0 0"/><path d="m144 256c26.65625 0 52.511719-9.59375 72.824219-27l-10.425781-12.152344c-15.359376 13.175782-34.429688 21.105469-54.398438 22.792969v-31.640625h-16v31.59375c-46.550781-3.867188-83.726562-41.042969-87.59375-87.59375h31.59375v-16h-31.640625c1.679687-19.96875 9.609375-39.039062 22.792969-54.40625l-12.144532-10.417969c-17.414062 20.304688-27.007812 46.160157-27.007812 72.824219 0 61.761719 50.238281 112 112 112zm0 0"/><path d="m136 48.359375v31.640625h16v-31.59375c46.550781 3.867188 83.726562 41.042969 87.59375 87.59375h-31.59375v16h31.640625c-1.679687 19.96875-9.609375 39.046875-22.792969 54.40625l12.144532 10.417969c17.414062-20.304688 27.007812-46.160157 27.007812-72.824219 0-61.761719-50.238281-112-112-112-26.65625 0-52.511719 9.59375-72.824219 27l10.425781 12.152344c15.359376-13.183594 34.429688-21.113282 54.398438-22.792969zm0 0"/></svg>