<svg height="512" viewBox="0 0 512 512" width="512" xmlns="http://www.w3.org/2000/svg"><g id="Filled_outline" data-name="Filled outline"><rect fill="#3fb7c7" height="304" rx="32" width="288" x="24" y="72"/><path d="m24 104v208a32 32 0 0 0 32 32h224a32 32 0 0 0 32-32v-208z" fill="#60d1e0"/><path d="m24 296v16a32 32 0 0 0 32 32h224a32 32 0 0 0 32-32v-184z" fill="#5ac6d4"/><path d="m312 72a32 32 0 0 0 -32-32h-224a32 32 0 0 0 -32 32v32h288z" fill="#f35244"/><path d="m440 176h16v16h-16z" fill="#92563a"/><path d="m432 312v128h-128v-128h24a8 8 0 0 0 8-8v-56h64v56a8 8 0 0 0 8 8z" fill="#fec9a3"/><path d="m400 248v48.51a72.1 72.1 0 0 1 -64 0v-48.51z" fill="#feb784"/><path d="m400 360h-64l32 80z" fill="#f35244"/><path d="m488 360a48 48 0 0 0 -48-48h-24l-48 128-48-128h-31.035a44.088 44.088 0 0 0 -37.809 21.406l-59.156 98.594 40 40 56-80c-13.195 22.134-9.434 51.079 8 72v32h192z" fill="#404f66"/><path d="m304 312.002-16 40 32 7.998-8 24 56 56-48-128z" fill="#4d5e78"/><path d="m432 312.002 16 40-32 7.998 8 24-56 56 48-128z" fill="#4d5e78"/><circle cx="448" cy="64" fill="#804a32" r="40"/><path d="m432 176h12a20 20 0 0 1 20 20 20 20 0 0 1 -20 20h-12a0 0 0 0 1 0 0v-40a0 0 0 0 1 0 0z" fill="#feb784"/><path d="m272 176h12a20 20 0 0 1 20 20 20 20 0 0 1 -20 20h-12a0 0 0 0 1 0 0v-40a0 0 0 0 1 0 0z" fill="#feb784" transform="matrix(-1 0 0 -1 576 392)"/><path d="m440 168v48a72 72 0 1 1 -144 0v-48a72.011 72.011 0 0 1 62.48-71.37 72.008 72.008 0 0 1 81.52 71.37z" fill="#fec9a3"/><path d="m440 168v48a72.058 72.058 0 0 1 -94.61 68.38 82.53 82.53 0 0 0 56.63-78.36v-36.66a82.616 82.616 0 0 0 -43.54-72.73 72.008 72.008 0 0 1 81.52 71.37z" fill="#fec093"/><rect fill="#e0e0de" height="48" rx="24" width="56" x="296" y="168"/><rect fill="#e0e0de" height="48" rx="24" width="56" x="384" y="168"/><path d="m318.222 176.873c23.869-9.28 61.141-28.759 81.778-64.873 0 0 8 32 40 64h16v-24a88 88 0 0 0 -88-88 88 88 0 0 0 -88 88v32a105.455 105.455 0 0 0 38.222-7.127z" fill="#92563a"/><path d="m192 360h48a0 0 0 0 1 0 0v104a24 24 0 0 1 -24 24 24 24 0 0 1 -24-24v-104a0 0 0 0 1 0 0z" fill="#4d5e78"/><path d="m160 320h56a24 24 0 0 1 24 24v16a0 0 0 0 1 0 0h-56a24 24 0 0 1 -24-24v-16a0 0 0 0 1 0 0z" fill="#fec9a3"/><path d="m56 384h104v-16h-104a24.027 24.027 0 0 1 -24-24v-.022a39.788 39.788 0 0 0 24 8.022h80v-16h-80a24.027 24.027 0 0 1 -24-24v-200h232v-16h-232v-24a24.027 24.027 0 0 1 24-24h8v16h16v-16h32v16h16v-16h32v16h16v-16h32v16h16v-16h32v16h16v-16h8a24.1 24.1 0 0 1 20.793 12.006l13.849-8.012a40.147 40.147 0 0 0 -34.642-19.994h-8v-16h-16v16h-32v-16h-16v16h-32v-16h-16v16h-32v-16h-16v16h-32v-16h-16v16h-8a40.045 40.045 0 0 0 -40 40v272a40.045 40.045 0 0 0 40 40z"/><path d="m64 152h16v16h-16z"/><path d="m112 208v32a8 8 0 0 0 8 8h32a8 8 0 0 0 8-8v-32a8 8 0 0 0 -8-8h-32a8 8 0 0 0 -8 8zm16 8h16v16h-16z"/><path d="m176 240a8 8 0 0 0 8 8h32a8 8 0 0 0 8-8v-32a8 8 0 0 0 -8-8h-32a8 8 0 0 0 -8 8zm16-24h16v16h-16z"/><path d="m128 152h16v16h-16z"/><path d="m88 264h-32a8 8 0 0 0 -8 8v32a8 8 0 0 0 8 8h32a8 8 0 0 0 8-8v-32a8 8 0 0 0 -8-8zm-8 32h-16v-16h16z"/><path d="m184 184h32a8 8 0 0 0 8-8v-32a8 8 0 0 0 -8-8h-32a8 8 0 0 0 -8 8v32a8 8 0 0 0 8 8zm8-32h16v16h-16z"/><path d="m96 208a8 8 0 0 0 -8-8h-32a8 8 0 0 0 -8 8v32a8 8 0 0 0 8 8h32a8 8 0 0 0 8-8zm-16 24h-16v-16h16z"/><path d="m112 304a8 8 0 0 0 8 8h32a8 8 0 0 0 8-8v-32a8 8 0 0 0 -8-8h-32a8 8 0 0 0 -8 8zm16-24h16v16h-16z"/><path d="m192 280h16v16h-16z"/><path d="m240 240a8 8 0 0 0 8 8h8v-48h-8a8 8 0 0 0 -8 8z"/><path d="m240 144v32a8 8 0 0 0 8 8h8v-48h-8a8 8 0 0 0 -8 8z"/><path d="m256 280h16v16h-16z"/><path d="m272 152v24.416a27.985 27.985 0 0 0 16.378 47.342 79.43 79.43 0 0 0 39.622 61.528v18.714h-39.04a52.04 52.04 0 0 0 -44.6 25.2 32.025 32.025 0 0 0 -28.36-17.2h-56a8 8 0 0 0 -8 8v16a32.036 32.036 0 0 0 32 32v96a32 32 0 0 0 64 0v-.908l24.449-34.927a75.551 75.551 0 0 0 15.551 38.646v29.189a8 8 0 0 0 8 8h144.094a8 8 0 0 0 8-8v-29.189a76.28 76.28 0 0 0 14.519-31.637 71.159 71.159 0 0 0 1.373-12.9 65.066 65.066 0 0 0 -9.021-34.368l-6.871 4.1-6.872 4.1a49.021 49.021 0 0 1 6.784 25.265 55.539 55.539 0 0 1 -1.944 14.4 61.032 61.032 0 0 1 -12.114 23.114 8 8 0 0 0 -1.854 5.115v24h-128.094v-24a8 8 0 0 0 -1.854-5.122 61.546 61.546 0 0 1 -10.857-19.053 56.169 56.169 0 0 1 -3.2-18.463 49.021 49.021 0 0 1 6.784-25.265l-6.873-4.097-6.554-4.588-33.446 47.779v-80.974l10.022-16.694a36.052 36.052 0 0 1 30.938-17.523h3.225l-11.613 29.031a8 8 0 0 0 5.488 10.733l23.618 5.9-5.267 15.8a8 8 0 0 0 1.932 8.187l56 56c.029.028.061.052.09.08l.039.04c.021.02.04.042.062.062.089.083.184.161.277.241.068.058.135.117.205.173.109.087.224.169.338.251.048.034.1.07.144.1s.09.065.137.095l.034.024c.027.018.057.029.084.046.213.133.43.257.652.369.059.03.12.056.18.085s.141.067.213.1c.221.1.446.182.673.257.056.019.109.041.165.059l.108.034c.044.013.089.021.134.033.259.071.52.128.784.173.053.009.105.021.158.029s.126.014.189.022a7.981 7.981 0 0 0 .978.068h.026a7.981 7.981 0 0 0 .978-.068c.063-.008.126-.013.189-.022s.105-.02.158-.029c.264-.045.526-.1.785-.173.044-.012.089-.02.133-.033l.108-.035c.056-.017.109-.039.164-.057.228-.076.453-.161.675-.258.071-.031.141-.065.212-.1s.12-.055.179-.085c.224-.112.442-.236.656-.37.026-.017.055-.028.081-.045s.022-.016.034-.024c.046-.03.092-.063.138-.095s.1-.069.143-.1c.114-.082.229-.164.337-.25.071-.057.138-.117.207-.175.093-.079.188-.157.276-.24.022-.02.041-.042.062-.062l.039-.039c.029-.029.061-.053.09-.081l56-56a8 8 0 0 0 1.932-8.187l-5.267-15.8 23.618-5.9a8 8 0 0 0 5.488-10.733l-11.536-28.839a40.054 40.054 0 0 1 36.108 39.808v136h16v-136a56.064 56.064 0 0 0 -56-56h-32v-18.714a79.436 79.436 0 0 0 39.622-61.525 27.977 27.977 0 0 0 16.357-47.352c.007-.136.021-.271.021-.409v-24a95.429 95.429 0 0 0 -8.983-40.518 48 48 0 1 0 -54.953-49.968 96 96 0 0 0 -128.064 90.486zm-104 184v-8h48a16.019 16.019 0 0 1 16 16v8h-48a16.019 16.019 0 0 1 -16-16zm64 128a16 16 0 0 1 -32 0v-96h32zm56-312a80 80 0 0 1 160 0v16h-4.641a163.09 163.09 0 0 1 -27.954-39.08 104.97 104.97 0 0 1 -7.644-18.86 8 8 0 0 0 -14.707-2.029c-19.92 34.861-57.251 53.423-77.731 61.385a96.656 96.656 0 0 1 -27.323 6.263zm92.305 24h-24.605a32.02 32.02 0 0 0 -4.527-6.066c16.592-9.652 33.5-22.762 46.808-40.382a167.99 167.99 0 0 0 17.787 30.448h-7.768a32.012 32.012 0 0 0 -27.695 16zm-38.339 8.21a15.708 15.708 0 0 1 2.034 7.79 16 16 0 0 1 -16 16h-8a15.911 15.911 0 0 1 -15.773-18.59 112.506 112.506 0 0 0 16.894-5.081c4.65-1.808 9.58-3.9 14.664-6.31a15.951 15.951 0 0 1 6.181 6.191zm66.034-8.21h8a16 16 0 0 1 0 32h-8a16 16 0 0 1 0-32zm-128 20a11.972 11.972 0 0 1 .7-4.008q3.667-.022 7.3-.268v15.576a12.01 12.01 0 0 1 -8-11.3zm124.6 123.627-12.144 32.373h-48.912l-12.144-32.373a16.023 16.023 0 0 0 12.6-15.627v-11.662a80.487 80.487 0 0 0 48 0v11.662a16.023 16.023 0 0 0 12.6 15.627zm-55.056 48.373h36.912l-18.456 49.216zm-22.531-11.85a8 8 0 0 0 -5.073-3.911l-23.108-5.776 10.585-26.463h5.039l19.544 52.128 13.537 36.1-26.388-26.388 6.436-19.309a8 8 0 0 0 -.572-6.381zm87.047-3.911a8 8 0 0 0 -5.649 10.291l6.436 19.309-26.388 26.388 13.541-36.099 19.544-52.128h5.039l10.585 26.462zm-17.626-78.89a63.994 63.994 0 0 1 -92.317-53.587 31.786 31.786 0 0 0 15.883 4.238h8a32 32 0 0 0 32-32h16a32.036 32.036 0 0 0 32 32h8a31.786 31.786 0 0 0 15.883-4.238 63.636 63.636 0 0 1 -35.449 53.587zm56.05-68.866a11.958 11.958 0 0 1 -4.484 2.817v-22.6a11.985 11.985 0 0 1 4.484 19.783zm-36.484-140.483a32 32 0 1 1 32 32c-.711 0-1.425-.041-2.139-.089a96.741 96.741 0 0 0 -29.43-26.769 32.107 32.107 0 0 1 -.431-5.142z"/><path d="m368 240a8.009 8.009 0 0 1 -8-8h-16a24 24 0 0 0 48 0h-16a8.009 8.009 0 0 1 -8 8z"/><path d="m360 464h16v16h-16z"/></g></svg>