<?xml version="1.0" encoding="iso-8859-1"?>
<!-- Generator: Adobe Illustrator 19.0.0, SVG Export Plug-In . SVG Version: 6.00 Build 0)  -->
<svg version="1.1" id="Capa_1" xmlns="http://www.w3.org/2000/svg" xmlns:xlink="http://www.w3.org/1999/xlink" x="0px" y="0px"
	 viewBox="0 0 512 512" style="enable-background:new 0 0 512 512;" xml:space="preserve">
<path style="fill:#FFAA20;" d="M453.584,235.558c-1.509-18.762-5.638-37.015-12.335-54.508l46.141-36.955l-74.979-93.622
	L366.55,87.199c-15.833-10.666-32.956-18.902-51.119-24.58V4.343H195.48v58.656c-18.992,6.078-36.815,14.964-53.228,26.529
	L95.911,53.513l-73.61,94.711l47.161,36.645c-6.297,17.533-10.046,35.765-11.195,54.458L0,253.271l27.909,116.652l59.396-14.204
	c9.586,15.554,21.211,29.628,34.716,42.013l-26.059,55.277l108.506,51.139l26.309-55.817c7.857,1.01,15.694,1.549,23.52,1.619
	c10.266,0.11,20.492-0.59,30.607-2.069l26.949,55.077l107.746-52.718l-26.879-54.937c13.315-12.665,24.73-27.009,34.056-42.832
	l59.026,13.215L512,248.633L453.584,235.558z M256.085,377.13c-0.6,0-1.19,0-1.789-0.01
	c-68.312-0.96-123.579-56.827-123.579-125.359s55.267-124.399,123.579-125.359c0.6-0.01,1.19-0.01,1.789-0.01
	c69.132,0,125.369,56.237,125.369,125.369S325.217,377.13,256.085,377.13z"/>
<polygon style="fill:#00459F;" points="234.784,333.468 60.595,507.657 0.19,447.252 173.719,274.372 204.086,303.76 "/>
<path style="fill:#FF9A00;" d="M512,248.633l-26.199,117.052l-59.026-13.215c-9.326,15.823-20.742,30.168-34.056,42.832
	l26.879,54.937l-107.746,52.718l-26.949-55.077c-10.116,1.479-20.342,2.179-30.607,2.069v-72.83c0.6,0.01,1.19,0.01,1.789,0.01
	c69.132,0,125.369-56.237,125.369-125.369s-56.237-125.369-125.369-125.369c-0.6,0-1.19,0-1.789,0.01V4.343h61.135v58.276
	c18.163,5.678,35.286,13.914,51.119,24.58l45.861-36.725l74.979,93.622l-46.141,36.955c6.697,17.493,10.826,35.745,12.335,54.508
	L512,248.633z"/>
<polygon style="fill:#002D6B;" points="234.784,333.468 60.595,507.657 30.398,477.459 204.086,303.76 "/>
<path style="fill:#9CFDFF;" d="M320.509,318.185c-18.263,18.253-42.243,27.379-66.223,27.379c-23.63,0-47.271-8.866-65.413-26.589
	c-0.27-0.26-0.54-0.53-0.8-0.79c-17.693-17.693-27.429-41.203-27.429-66.213c0-25.02,9.736-48.53,27.429-66.223
	c26.479-26.479,66.073-34.636,100.879-20.791l21.171,8.427l-50.649,50.639l22.751,22.751l50.649-50.639l8.417,21.171
	C355.144,252.112,346.978,291.705,320.509,318.185z"/>
<path style="fill:#55FBFF;" d="M320.509,318.185c-18.263,18.253-42.243,27.379-66.223,27.379c-23.63,0-47.271-8.866-65.413-26.589
	l82.776-82.776l10.576,10.576l50.649-50.639l8.417,21.171C355.144,252.112,346.978,291.705,320.509,318.185z"/>
<g>
</g>
<g>
</g>
<g>
</g>
<g>
</g>
<g>
</g>
<g>
</g>
<g>
</g>
<g>
</g>
<g>
</g>
<g>
</g>
<g>
</g>
<g>
</g>
<g>
</g>
<g>
</g>
<g>
</g>
</svg>
